<svg xmlns="http://www.w3.org/2000/svg" width="400" height="600" viewBox="0 0 400 600">
  <defs>
    <linearGradient id="wk-bg" x1="0%" y1="0%" x2="100%" y2="100%">
      <stop offset="0%" style="stop-color:#1a1438"/>
      <stop offset="50%" style="stop-color:#10082a"/>
      <stop offset="100%" style="stop-color:#080418"/>
    </linearGradient>
    <linearGradient id="wk-rim" x1="0%" y1="0%" x2="0%" y2="100%">
      <stop offset="0%" style="stop-color:#b894ff;stop-opacity:0.4"/>
      <stop offset="100%" style="stop-color:#6040a8;stop-opacity:0.28"/>
    </linearGradient>
    <radialGradient id="wk-pulse" cx="50%" cy="45%" r="50%">
      <stop offset="0%" style="stop-color:#4088ff;stop-opacity:0.18"/>
      <stop offset="100%" style="stop-color:#180828;stop-opacity:0"/>
    </radialGradient>
  </defs>
  <rect width="400" height="600" rx="14" fill="url(#wk-bg)"/>
  <rect x="3" y="3" width="394" height="594" rx="12" fill="none" stroke="url(#wk-rim)" stroke-width="3"/>
  <ellipse cx="200" cy="268" rx="130" ry="110" fill="url(#wk-pulse)"/>
  <!-- Keep + swarm motes -->
  <rect x="155" y="240" width="90" height="120" rx="6" fill="#241858" stroke="#6a58c8" stroke-width="1.5"/>
  <path fill="#4a7cff" opacity="0.75" d="M125 360 q8-18 16 0 t16 0 t16 0 t16 0 t16 0"/>
  <circle cx="165" cy="330" r="5" fill="#6ec8ff" opacity="0.85"/>
  <circle cx="200" cy="318" r="5" fill="#8ad8ff" opacity="0.85"/>
  <circle cx="235" cy="332" r="5" fill="#6ec8ff" opacity="0.85"/>
  <text x="200" y="108" text-anchor="middle" fill="#e8e0ff" font-family="Georgia,serif" font-size="23" font-weight="bold">WIZARD KEEP</text>
  <text x="200" y="138" text-anchor="middle" fill="#a898d8" font-family="system-ui,sans-serif" font-size="12">HOME " SWARM TRICKLE</text>
  <text x="200" y="438" text-anchor="middle" fill="#f2eeff" font-family="Georgia,serif" font-size="17">T1 guard swarm vent</text>
  <text x="200" y="468" text-anchor="middle" fill="#b8a8e8" font-family="system-ui,sans-serif" font-size="12">Uses Azure Spear Swarm visuals in-world</text>
  <text x="200" y="528" text-anchor="middle" fill="#7868a8" font-family="system-ui,sans-serif" font-size="10">catalog id: wizard_keep</text>
</svg>
